HIERARCHY
ROOT Hips
{
 OFFSET 0.000000 0.000000 0.000000
 CHANNELS 6 Xposition Yposition Zposition Yrotation Xrotation Zrotation
 JOINT Chest
 {
  OFFSET 0.000000 9.585900 0.002600
  CHANNELS 3 Yrotation Xrotation Zrotation
  JOINT Chest2
  {
   OFFSET 0.000000 9.601200 -0.005300
   CHANNELS 3 Yrotation Xrotation Zrotation
   JOINT Chest3
   {
    OFFSET 0.000000 9.561800 0.000000
    CHANNELS 3 Yrotation Xrotation Zrotation
    JOINT Chest4
    {
     OFFSET 0.000000 9.552100 0.000000
     CHANNELS 3 Yrotation Xrotation Zrotation
     JOINT Neck
     {
      OFFSET 0.000000 14.453000 0.000000
      CHANNELS 3 Yrotation Xrotation Zrotation
      JOINT Head
      {
       OFFSET 0.000000 8.936500 -0.011300
       CHANNELS 3 Yrotation Xrotation Zrotation
       End Site
       {
        OFFSET 0.000000 17.073600 -0.006000
       }
      }
     }
     JOINT RightCollar
     {
      OFFSET -2.921100 9.558500 0.000000
      CHANNELS 3 Yrotation Xrotation Zrotation
      JOINT RightShoulder
      {
       OFFSET -13.519700 0.000000 0.000000
       CHANNELS 3 Yrotation Xrotation Zrotation
       JOINT RightElbow
       {
        OFFSET 0.000000 -29.696600 0.000000
        CHANNELS 3 Yrotation Xrotation Zrotation
        JOINT RightWrist
        {
         OFFSET 0.000000 -24.004700 0.000000
         CHANNELS 3 Yrotation Xrotation Zrotation
         End Site
         {
          OFFSET 0.000000 -17.728500 0.000000
         }
        }
       }
      }
     }
     JOINT LeftCollar
     {
      OFFSET 2.921100 9.558500 0.000000
      CHANNELS 3 Yrotation Xrotation Zrotation
      JOINT LeftShoulder
      {
       OFFSET 13.519700 0.000000 0.000000
       CHANNELS 3 Yrotation Xrotation Zrotation
       JOINT LeftElbow
       {
        OFFSET 0.000000 -29.696600 0.000000
        CHANNELS 3 Yrotation Xrotation Zrotation
        JOINT LeftWrist
        {
         OFFSET 0.000000 -24.004700 0.000000
         CHANNELS 3 Yrotation Xrotation Zrotation
         End Site
         {
          OFFSET 0.000000 -17.728500 0.000000
         }
        }
       }
      }
     }
    }
   }
  }
 }
 JOINT RightHip
 {
  OFFSET -7.771700 -0.012900 -0.001300
  CHANNELS 3 Yrotation Xrotation Zrotation
  JOINT RightKnee
  {
   OFFSET 0.000000 -40.869800 0.001200
   CHANNELS 3 Yrotation Xrotation Zrotation
   JOINT RightAnkle
   {
    OFFSET 0.000000 -39.717900 0.002100
    CHANNELS 3 Yrotation Xrotation Zrotation
    JOINT RightToe
    {
     OFFSET 0.000000 -4.965400 11.033500
     CHANNELS 3 Yrotation Xrotation Zrotation
     End Site
     {
      OFFSET 0.000000 -1.423100 5.872300
     }
    }
   }
  }
 }
 JOINT LeftHip
 {
  OFFSET 7.771700 -0.012900 -0.001300
  CHANNELS 3 Yrotation Xrotation Zrotation
  JOINT LeftKnee
  {
   OFFSET 0.000000 -40.869800 0.001200
   CHANNELS 3 Yrotation Xrotation Zrotation
   JOINT LeftAnkle
   {
    OFFSET 0.000000 -39.717900 0.002100
    CHANNELS 3 Yrotation Xrotation Zrotation
    JOINT LeftToe
    {
     OFFSET 0.000000 -4.965400 11.033500
     CHANNELS 3 Yrotation Xrotation Zrotation
     End Site
     {
      OFFSET 0.000000 -1.423100 5.872300
     }
    }
   }
  }
 }
}
MOTION
Frames: 8
Frame Time: 0.008333
-12.103376 57.736154 67.160842 169.627053 -31.897338 -2.323141 3.998020 22.254451 4.337965 0.530933 3.266530 0.376672 0.862486 5.238469 0.555845 3.492490 18.953773 2.563159 -0.154763 8.236992 -9.279021 4.185348 -19.890711 -18.166494 5.875159 -3.448905 -1.741185 24.007287 -35.992195 -16.321977 5.526757 -27.614267 12.703011 18.224667 -13.892880 -41.808508 -10.654774 -5.216696 -5.992480 -4.920564 -28.375943 -4.473041 -9.551439 -45.776275 -11.428852 15.395569 -6.640682 9.503568 12.302917 -39.869269 1.651253 -7.940791 66.181213 -8.351818 3.305290 6.618609 8.251281 -0.392016 1.161049 -0.128097 -6.207671 -45.919180 6.297900 32.481558 59.169835 36.848887 -19.056639 36.502981 -4.497529 0.496305 -17.725373 -7.075681
-12.113015 57.732877 67.141274 169.570028 -31.823343 -2.342262 4.059663 22.164292 4.336534 0.531964 3.260607 0.398105 0.861955 5.187772 0.526119 3.508577 18.898955 2.554356 -0.180143 8.302500 -9.245727 4.108417 -19.778469 -18.078745 5.851171 -3.459664 -1.723096 23.984387 -35.941748 -16.324893 5.589568 -27.440035 12.740118 18.185501 -13.936598 -41.667220 -10.651019 -5.218361 -5.979993 -4.938727 -28.361769 -4.452431 -9.627938 -45.573841 -11.451050 15.381124 -6.708153 9.424739 12.348233 -39.942018 1.654200 -7.894894 66.210914 -8.271729 3.262882 6.491911 8.203777 -0.362153 1.156536 -0.110870 -6.197913 -45.996930 6.361549 32.489491 59.228751 36.875942 -19.017344 36.397082 -4.475977 0.491658 -17.672634 -7.075741
-12.125310 57.727931 67.123015 169.515368 -31.733708 -2.357153 4.118194 22.057969 4.330430 0.530405 3.222289 0.368704 0.868368 5.169436 0.548758 3.524590 18.844423 2.547428 -0.203716 8.368909 -9.213360 4.035407 -19.664083 -17.993795 5.825840 -3.465493 -1.705145 23.944122 -35.889035 -16.320324 5.654778 -27.286357 12.779767 18.144695 -13.977702 -41.520366 -10.647317 -5.217222 -5.967899 -4.965588 -28.353579 -4.422355 -9.692114 -45.371884 -11.495213 15.357544 -6.771161 9.353879 12.549119 -40.012805 1.501408 -7.866988 66.216668 -8.066037 3.296165 6.333781 8.181163 -0.407656 1.179210 -0.128130 -6.185461 -46.094745 6.419629 32.504639 59.270090 36.906205 -19.012727 36.347665 -4.472217 0.502491 -17.660433 -7.071657
-12.143282 57.727598 67.095114 169.546539 -31.698035 -2.379542 4.093813 22.010605 4.290624 0.529935 3.217049 0.388871 0.868898 5.120292 0.522021 3.539581 18.791136 2.541950 -0.225115 8.434709 -9.182301 3.967489 -19.550165 -17.912597 5.801385 -3.468218 -1.688722 23.891417 -35.836752 -16.309549 5.718537 -27.149006 12.818084 18.104710 -14.011352 -41.373566 -10.640993 -5.215668 -5.958800 -4.985144 -28.288163 -4.393827 -9.785959 -45.229776 -11.532477 15.331491 -6.831963 9.286604 12.638563 -40.029993 1.364020 -7.808371 66.277942 -7.874003 3.270657 6.150156 8.122052 -0.400659 1.187361 -0.122463 -6.191983 -46.144507 6.412090 32.523251 59.301930 36.940680 -19.052651 36.339090 -4.498994 0.536230 -17.678898 -7.057020
-12.161501 57.726523 67.068346 169.563247 -31.654907 -2.397828 4.081560 21.955002 4.255958 0.532370 3.195451 0.383265 0.868879 5.089571 0.522241 3.554580 18.739899 2.537822 -0.244593 8.497928 -9.152942 3.946582 -19.472598 -17.859193 5.778854 -3.470084 -1.673831 23.830436 -35.784688 -16.295541 5.781150 -27.028594 12.854606 18.066122 -14.038870 -41.227940 -10.634891 -5.213924 -5.951974 -5.025574 -28.316714 -4.344706 -9.841633 -45.006566 -11.597030 15.310858 -6.890821 9.214999 12.702856 -40.052897 1.264520 -7.760200 66.322145 -7.734998 3.251679 5.986256 8.077695 -0.391758 1.186041 -0.117595 -6.204466 -46.194764 6.419608 32.545215 59.323421 36.966905 -19.091755 36.336765 -4.522531 0.566416 -17.705384 -7.043620
-12.177150 57.720348 67.051206 169.557067 -31.551877 -2.431021 4.093828 21.837186 4.247124 0.534394 3.174850 0.380138 0.869402 5.060189 0.520489 3.571548 18.743551 2.561271 -0.265478 8.503324 -9.151581 3.925075 -19.394679 -17.807826 5.762299 -3.520936 -1.691979 23.762683 -35.733535 -16.278281 5.841065 -26.924922 12.891405 18.023880 -14.066713 -41.085758 -10.632415 -5.212874 -5.948523 -5.068318 -28.401460 -4.300224 -9.905566 -44.795775 -11.650141 15.297051 -6.948728 9.137715 12.759848 -40.138865 1.198053 -7.719707 66.337238 -7.623987 3.247710 5.846909 8.049806 -0.393770 1.183787 -0.118151 -6.232588 -46.303202 6.473272 32.549616 59.336541 36.983350 -19.131648 36.342527 -4.549234 0.582430 -17.733337 -7.029805
-12.189126 57.715246 67.034046 169.552610 -31.457789 -2.485926 4.115232 21.727942 4.263123 0.532880 3.153659 0.376037 0.873441 5.033264 0.520365 3.585597 18.745298 2.582972 -0.278406 8.518864 -9.143340 3.861940 -19.301480 -17.743296 5.750008 -3.567261 -1.708145 23.690988 -35.682846 -16.260612 5.895918 -26.837474 12.929703 17.980180 -14.090436 -40.948907 -10.629483 -5.292507 -5.968844 -5.106519 -28.371710 -4.240259 -9.996825 -44.622971 -11.680306 15.291176 -7.007705 9.055142 12.759955 -40.225432 1.200121 -7.683380 66.355600 -7.558156 3.234452 5.729805 8.027690 -0.385223 1.161646 -0.115680 -6.218854 -46.431344 6.518194 32.543152 59.386313 37.023058 -19.142068 36.369571 -4.528370 0.584803 -17.794580 -7.032195
-12.203362 57.717271 67.005286 169.558816 -31.445063 -2.517947 4.126563 21.704270 4.256746 0.534888 3.106613 0.335228 0.877246 5.034586 0.558571 3.599608 18.621398 2.545270 -0.280428 8.679852 -9.062207 3.792734 -19.244769 -17.698841 5.726181 -3.495928 -1.647569 23.625633 -35.627495 -16.227819 5.951908 -26.763067 12.944561 17.944070 -14.108739 -40.817658 -10.647153 -5.239145 -5.956014 -5.142453 -28.341916 -4.173246 -10.085693 -44.458572 -11.707686 15.289566 -7.068080 8.971068 12.758246 -40.230140 1.189918 -7.661489 66.404182 -7.505990 3.217941 5.597608 8.001803 -0.368212 1.132507 -0.112331 -6.199232 -46.473210 6.526446 32.642595 59.429402 37.137120 -19.167550 36.340821 -4.487249 0.559148 -17.846995 -7.028201
